<svg width="1303" height="35" viewBox="0 0 1303 35" fill="none" xmlns="http://www.w3.org/2000/svg">
<rect width="1303" height="35" fill="#F5F5F5"/>
<rect width="1303" height="35" fill="url(#paint0_linear_0_1)"/>
<path d="M10.24 10C10.144 10 10.0693 9.976 10.016 9.928C9.96267 9.87467 9.936 9.80267 9.936 9.712C9.936 9.62133 9.96267 9.55467 10.016 9.512C10.0693 9.464 10.144 9.44 10.24 9.44H11.28V4.904H11.624L10.464 5.672C10.3947 5.70933 10.328 5.72533 10.264 5.72C10.2053 5.71467 10.1547 5.69333 10.112 5.656C10.0747 5.61333 10.048 5.56533 10.032 5.512C10.016 5.45333 10.0187 5.39467 10.04 5.336C10.0613 5.272 10.1067 5.21867 10.176 5.176L11.28 4.448C11.3493 4.40533 11.416 4.37067 11.48 4.344C11.544 4.31733 11.608 4.304 11.672 4.304C11.7467 4.304 11.808 4.328 11.856 4.376C11.9093 4.41867 11.936 4.488 11.936 4.584V9.44H12.896C12.992 9.44 13.0667 9.464 13.12 9.512C13.1733 9.55467 13.2 9.62133 13.2 9.712C13.2 9.808 13.1733 9.88 13.12 9.928C13.0667 9.976 12.992 10 12.896 10H10.24ZM11.336 32.072C11.0267 32.072 10.7147 32.0267 10.4 31.936C10.0907 31.8453 9.82133 31.712 9.592 31.536C9.52267 31.488 9.47733 31.4347 9.456 31.376C9.43467 31.312 9.42933 31.2533 9.44 31.2C9.456 31.1413 9.48533 31.0933 9.528 31.056C9.57067 31.0133 9.62133 30.9893 9.68 30.984C9.744 30.9787 9.81333 31 9.888 31.048C10.1227 31.2027 10.3573 31.3147 10.592 31.384C10.8267 31.4533 11.0693 31.488 11.32 31.488C11.592 31.488 11.8213 31.448 12.008 31.368C12.1947 31.288 12.336 31.1707 12.432 31.016C12.528 30.856 12.576 30.6613 12.576 30.432C12.576 30.1013 12.4667 29.8507 12.248 29.68C12.0293 29.5093 11.712 29.424 11.296 29.424H10.728C10.6267 29.424 10.5493 29.4 10.496 29.352C10.4427 29.2987 10.416 29.2267 10.416 29.136C10.416 29.0507 10.4427 28.984 10.496 28.936C10.5493 28.8827 10.6267 28.856 10.728 28.856H11.24C11.4853 28.856 11.6933 28.8133 11.864 28.728C12.04 28.6427 12.176 28.5227 12.272 28.368C12.368 28.208 12.416 28.016 12.416 27.792C12.416 27.4933 12.32 27.2667 12.128 27.112C11.936 26.952 11.6587 26.872 11.296 26.872C11.056 26.872 10.8293 26.9067 10.616 26.976C10.4027 27.0453 10.192 27.1627 9.984 27.328C9.92 27.376 9.856 27.4 9.792 27.4C9.73333 27.3947 9.68267 27.376 9.64 27.344C9.60267 27.3067 9.57333 27.2587 9.552 27.2C9.536 27.1413 9.53867 27.0827 9.56 27.024C9.58133 26.96 9.62667 26.9013 9.696 26.848C9.90933 26.6667 10.16 26.528 10.448 26.432C10.736 26.336 11.032 26.288 11.336 26.288C11.6987 26.288 12.008 26.3467 12.264 26.464C12.5253 26.576 12.7253 26.7413 12.864 26.96C13.0027 27.1733 13.072 27.432 13.072 27.736C13.072 27.9653 13.0267 28.176 12.936 28.368C12.8507 28.5547 12.728 28.7147 12.568 28.848C12.4133 28.9813 12.224 29.0773 12 29.136V29.048C12.3893 29.112 12.6907 29.272 12.904 29.528C13.1227 29.7787 13.232 30.096 13.232 30.48C13.232 30.8053 13.1547 31.088 13 31.328C12.8507 31.5627 12.6347 31.7467 12.352 31.88C12.0693 32.008 11.7307 32.072 11.336 32.072Z" fill="#263131"/>
<path d="M10.032 21C9.91467 21 9.82667 20.9733 9.768 20.92C9.71467 20.8613 9.688 20.784 9.688 20.688C9.688 20.6293 9.70133 20.5733 9.728 20.52C9.76 20.4613 9.80267 20.4027 9.856 20.344L11.648 18.424C11.92 18.1307 12.1147 17.8613 12.232 17.616C12.3547 17.3653 12.416 17.112 12.416 16.856C12.416 16.536 12.3173 16.2933 12.12 16.128C11.928 15.9573 11.6453 15.872 11.272 15.872C11.032 15.872 10.8053 15.9093 10.592 15.984C10.3787 16.0587 10.1733 16.1733 9.976 16.328C9.90667 16.3813 9.84267 16.4053 9.784 16.4C9.73067 16.3947 9.68267 16.3733 9.64 16.336C9.59733 16.2987 9.568 16.2507 9.552 16.192C9.536 16.1333 9.536 16.0747 9.552 16.016C9.57333 15.9573 9.616 15.904 9.68 15.856C9.888 15.6853 10.1387 15.5493 10.432 15.448C10.7253 15.3413 11.024 15.288 11.328 15.288C11.7067 15.288 12.0267 15.3467 12.288 15.464C12.5493 15.5813 12.7467 15.7547 12.88 15.984C13.0133 16.208 13.08 16.4827 13.08 16.808C13.08 17.032 13.0427 17.2533 12.968 17.472C12.8987 17.6853 12.7893 17.904 12.64 18.128C12.496 18.352 12.3067 18.584 12.072 18.824L10.368 20.624V20.44H13.064C13.1653 20.44 13.24 20.464 13.288 20.512C13.3413 20.5547 13.368 20.6213 13.368 20.712C13.368 20.808 13.3413 20.88 13.288 20.928C13.24 20.976 13.1653 21 13.064 21H10.032Z" fill="#AEB3B3"/>
<defs>
<linearGradient id="paint0_linear_0_1" x1="-1.60105e-09" y1="17.5" x2="270" y2="17" gradientUnits="userSpaceOnUse">
<stop stop-color="#EBEDF3"/>
<stop offset="0.322115" stop-color="#C8D8F6"/>
<stop offset="1" stop-color="#F9F9F9"/>
</linearGradient>
</defs>
</svg>
